<svg xmlns="http://www.w3.org/2000/svg" width="32" height="32" viewBox="0 0 32 32">
  <defs>
    <linearGradient id="mg" x1="0.5" y1="0" x2="0.5" y2="1">
      <stop offset="0%" stop-color="#E8935E"/>
      <stop offset="100%" stop-color="#C75B39"/>
    </linearGradient>
  </defs>
  <!-- Shield -->
  <path d="M16 2 L28 7 L28 17 C28 24 22 29 16 31 C10 29 4 24 4 17 L4 7 Z" fill="url(#mg)"/>
  <path d="M16 4.5 L25.5 8.5 L25.5 16.5 C25.5 22.5 21 27 16 28.8 C11 27 6.5 22.5 6.5 16.5 L6.5 8.5 Z" fill="none" stroke="rgba(255,255,255,0.2)" stroke-width="0.8"/>
  <!-- Lock body -->
  <rect x="12" y="14.5" width="8" height="6.5" rx="1.2" fill="#fff"/>
  <!-- Lock shackle -->
  <path d="M13.5 14.5 L13.5 12 C13.5 10.1 14.6 8.5 16 8.5 C17.4 8.5 18.5 10.1 18.5 12 L18.5 14.5" fill="none" stroke="#fff" stroke-width="1.5" stroke-linecap="round"/>
  <!-- Keyhole -->
  <circle cx="16" cy="17.2" r="1" fill="#C75B39"/>
  <rect x="15.65" y="17.2" width="0.7" height="2" rx="0.35" fill="#C75B39"/>
</svg>
